<?xml version="1.0" ?><svg fill="none" height="24" viewBox="0 0 24 24" width="24" xmlns="http://www.w3.org/2000/svg"><path clip-rule="evenodd" d="M12 4C10.8954 4 10 4.89543 10 6V7H14V6C14 4.89543 13.1046 4 12 4ZM16 7V6C16 3.79086 14.2091 2 12 2C9.79086 2 8 3.79086 8 6V7H6C5.50643 7 5.08668 7.36011 5.01163 7.84794L3.36611 18.5438C3.08653 20.3611 4.49257 22 6.33123 22H17.6688C19.5074 22 20.9135 20.3611 20.6339 18.5438L18.9884 7.84794C18.9133 7.36011 18.4936 7 18 7H16ZM14 9V11C14 11.5523 14.4477 12 15 12C15.5523 12 16 11.5523 16 11V9H17.1421L18.6572 18.8479C18.7503 19.4537 18.2817 20 17.6688 20H6.33123C5.71834 20 5.24966 19.4537 5.34285 18.8479L6.85792 9H8V11C8 11.5523 8.44772 12 9 12C9.55229 12 10 11.5523 10 11V9H14Z" fill="black" fill-rule="evenodd"/></svg>